
      <svg data-logo="logo" xmlns="http://www.w3.org/2000/svg" viewBox="0 0 222 42">
        <g id="logogram" transform="translate(0, 1) rotate(0) "><path d="M24 0H16V12.0632C15.9663 14.2434 14.1885 16 12.0005 16H0V24H8.68629C10.808 24 12.8429 23.1571 14.3431 21.6569L21.6569 14.3431C23.1571 12.8429 24 10.808 24 8.68629V0Z" fill="url(#paint0_linear_7697_8782)"/><path d="M16 40H24V27.9368C24.0337 25.7566 25.8115 24 27.9995 24H40V16H31.3137C29.192 16 27.1571 16.8429 25.6569 18.3431L18.3431 25.6569C16.8429 27.1571 16 29.192 16 31.3137V40Z" fill="url(#paint1_linear_7697_8782)"/></g>
        <g id="logotype" transform="translate(46, 8.5)"><path fill="#111111" d="M12.58 25L7.96 25L7.96-0.17L28.26-0.17Q29.59-0.17 30.71 0.50Q31.83 1.16 32.50 2.27Q33.16 3.37 33.16 4.70L33.16 4.70L33.16 11.49Q33.16 12.82 32.50 13.94Q31.83 15.06 30.71 15.71Q29.59 16.35 28.26 16.35L28.26 16.35L12.58 16.39L12.58 25ZM13 11.70L13 11.70L28.05 11.70Q28.23 11.70 28.37 11.59Q28.51 11.49 28.51 11.31L28.51 11.31L28.51 4.87Q28.51 4.70 28.37 4.58Q28.23 4.45 28.05 4.45L28.05 4.45L13 4.45Q12.83 4.45 12.70 4.58Q12.58 4.70 12.58 4.87L12.58 4.87L12.58 11.31Q12.58 11.49 12.70 11.59Q12.83 11.70 13 11.70ZM60.88 25L35.68 25L35.68-0.24L40.30-0.24L40.30 20.34L60.88 20.34L60.88 25ZM62.98 25L62.98 25L62.98 4.66Q62.98 3.33 63.65 2.23Q64.31 1.13 65.41 0.46Q66.52-0.20 67.84-0.20L67.84-0.20L83.28-0.20Q84.61-0.20 85.73 0.46Q86.85 1.13 87.52 2.23Q88.18 3.33 88.18 4.66L88.18 4.66L88.18 25L83.53 25L83.53 16.53L67.60 16.53L67.60 25L62.98 25ZM67.60 11.91L67.60 11.91L83.53 11.91L83.53 4.87Q83.53 4.70 83.39 4.58Q83.25 4.45 83.07 4.45L83.07 4.45L68.02 4.45Q67.84 4.45 67.72 4.58Q67.60 4.70 67.60 4.87L67.60 4.87L67.60 11.91ZM96.79 25L92.17 25L92.17-0.20L97.25-0.20L112.72 18.21L112.72-0.20L117.37-0.20L117.37 25L112.30 25L96.79 6.55L96.79 25ZM146.32 25L121.12 25L121.12 25L121.12 19.96L139.56 4.45L121.12 4.45L121.12-0.20L146.32-0.20L146.32 4.84L127.87 20.34L146.32 20.34L146.32 25ZM170.29 25L154.82 25Q153.49 25 152.39 24.34Q151.29 23.67 150.62 22.57Q149.96 21.46 149.96 20.13L149.96 20.13L149.96 4.66Q149.96 3.33 150.62 2.23Q151.29 1.13 152.39 0.46Q153.49-0.20 154.82-0.20L154.82-0.20L170.29-0.20Q171.62-0.20 172.72 0.46Q173.83 1.13 174.49 2.23Q175.16 3.33 175.16 4.66L175.16 4.66L175.16 20.13Q175.16 21.46 174.49 22.57Q173.83 23.67 172.72 24.34Q171.62 25 170.29 25L170.29 25ZM155.00 20.34L155.00 20.34L170.05 20.34Q170.22 20.34 170.36 20.22Q170.50 20.10 170.50 19.93L170.50 19.93L170.50 4.87Q170.50 4.70 170.36 4.58Q170.22 4.45 170.05 4.45L170.05 4.45L155.00 4.45Q154.82 4.45 154.70 4.58Q154.58 4.70 154.58 4.87L154.58 4.87L154.58 19.93Q154.58 20.10 154.70 20.22Q154.82 20.34 155.00 20.34Z"/></g>
        <defs xmlns="http://www.w3.org/2000/svg">
<linearGradient id="paint0_linear_7697_8782" x1="20" y1="-0.997096" x2="20" y2="33.7931" gradientUnits="userSpaceOnUse">
<stop stop-color="#75D8FC"/>
<stop offset="1" stop-color="#0072E5"/>
</linearGradient>
<linearGradient id="paint1_linear_7697_8782" x1="20" y1="-0.997096" x2="20" y2="33.7931" gradientUnits="userSpaceOnUse">
<stop stop-color="#75D8FC"/>
<stop offset="1" stop-color="#0072E5"/>
</linearGradient>
</defs>
      </svg>
    